<svg width="574" height="113" xmlns="http://www.w3.org/2000/svg" xmlns:xlink="http://www.w3.org/1999/xlink" xml:space="preserve" overflow="hidden"><defs><filter id="fx0" x="-10%" y="-10%" width="120%" height="120%" filterUnits="userSpaceOnUse" primitiveUnits="userSpaceOnUse"><feComponentTransfer color-interpolation-filters="sRGB"><feFuncR type="discrete" tableValues="0 0"/><feFuncG type="discrete" tableValues="0 0"/><feFuncB type="discrete" tableValues="0 0"/><feFuncA type="linear" slope="0.180392" intercept="0"/></feComponentTransfer><feGaussianBlur stdDeviation="1.77778 1.77778"/></filter><clipPath id="clip1"><rect x="472" y="213" width="574" height="113"/></clipPath><clipPath id="clip2"><rect x="-2" y="-2" width="579" height="118"/></clipPath><clipPath id="clip3"><rect x="0" y="0" width="576" height="115"/></clipPath><clipPath id="clip4"><rect x="6" y="6" width="563" height="102"/></clipPath><clipPath id="clip5"><rect x="6" y="6" width="563" height="102"/></clipPath><clipPath id="clip6"><rect x="475" y="216" width="562" height="101"/></clipPath><clipPath id="clip7"><rect x="475" y="216" width="562" height="101"/></clipPath><linearGradient x1="493.759" y1="293.577" x2="528.879" y2="201.453" gradientUnits="userSpaceOnUse" spreadMethod="pad" id="fill8"><stop offset="0" stop-color="#FFFFFF"/><stop offset="0.5335" stop-color="#E9E275"/><stop offset="1" stop-color="#88C8A1"/></linearGradient><linearGradient x1="453.984" y1="316.308" x2="614.141" y2="236.908" gradientUnits="userSpaceOnUse" spreadMethod="pad" id="fill9"><stop offset="0" stop-color="#FFFFFF"/><stop offset="0.5335" stop-color="#69FFF7"/><stop offset="1" stop-color="#E9E275"/></linearGradient><linearGradient x1="492.986" y1="293.283" x2="528.105" y2="201.158" gradientUnits="userSpaceOnUse" spreadMethod="pad" id="fill10"><stop offset="0" stop-color="#FFFFFF"/><stop offset="0.5335" stop-color="#E9E275"/><stop offset="1" stop-color="#88C8A1"/></linearGradient><linearGradient x1="455.498" y1="319.363" x2="615.656" y2="239.963" gradientUnits="userSpaceOnUse" spreadMethod="pad" id="fill11"><stop offset="0" stop-color="#FFFFFF"/><stop offset="0.5335" stop-color="#69FFF7"/><stop offset="1" stop-color="#E9E275"/></linearGradient><linearGradient x1="453.954" y1="316.248" x2="614.112" y2="236.848" gradientUnits="userSpaceOnUse" spreadMethod="pad" id="fill12"><stop offset="0" stop-color="#FFFFFF"/><stop offset="0.5335" stop-color="#69FFF7"/><stop offset="1" stop-color="#E9E275"/></linearGradient><linearGradient x1="454.717" y1="317.787" x2="614.874" y2="238.387" gradientUnits="userSpaceOnUse" spreadMethod="pad" id="fill13"><stop offset="0" stop-color="#FFFFFF"/><stop offset="0.5335" stop-color="#69FFF7"/><stop offset="1" stop-color="#E9E275"/></linearGradient></defs><g clip-path="url(#clip1)" transform="translate(-472 -213)"><g clip-path="url(#clip2)" filter="url(#fx0)" transform="translate(471 212)"><g clip-path="url(#clip3)"><g clip-path="url(#clip4)"><g clip-path="url(#clip5)"><path d="M141.776 107.828C131.988 107.828 123.655 104.38 116.757 97.4922 109.86 90.6047 106.421 82.262 106.421 72.4739 106.421 62.6859 109.87 54.3532 116.757 47.4557 123.645 40.5682 131.988 37.1195 141.776 37.1195 151.564 37.1195 159.896 40.5682 166.794 47.4557 173.681 54.3532 177.13 62.6859 177.13 72.4739 177.13 82.262 173.681 90.5947 166.794 97.4922 159.906 104.39 151.564 107.828 141.776 107.828ZM156.059 86.7672C160.006 82.8201 161.98 78.0657 161.98 72.4839 161.98 66.9121 160.006 62.1477 156.059 58.2006 152.112 54.2535 147.347 52.2799 141.776 52.2799 136.204 52.2799 131.439 54.2535 127.492 58.2006 123.545 62.1477 121.572 66.9121 121.572 72.4839 121.572 78.0657 123.545 82.8201 127.492 86.7672 131.439 90.7144 136.194 92.6879 141.776 92.6879 147.357 92.6779 152.122 90.7144 156.059 86.7672Z" fill="#FFFFFF"/><path d="M204.401 37.1294C214.189 37.1294 222.522 40.5782 229.419 47.4657 236.307 54.3631 239.755 62.6959 239.755 72.4839L239.755 107.838 224.605 107.838 224.605 72.4839C224.605 66.9121 222.631 62.1477 218.684 58.2006 214.737 54.2535 209.973 52.2799 204.401 52.2799L204.401 107.828 189.251 107.828 189.251 37.1294 204.401 37.1294ZM239.755 37.1294C249.544 37.1294 257.876 40.5782 264.774 47.4657 271.661 54.3631 275.11 62.6959 275.11 72.4839L275.11 107.838 259.959 107.838 259.959 72.4839C259.959 66.9121 257.986 62.1477 254.039 58.2006 250.092 54.2535 245.327 52.2799 239.755 52.2799L239.755 37.1294Z" fill="#FFFFFF"/><path d="M304.903 16.9254C304.903 19.7163 303.916 22.0985 301.942 24.0721 299.969 26.0456 297.587 27.0324 294.796 27.0324 292.005 27.0324 289.623 26.0456 287.659 24.0721 285.685 22.0985 284.699 19.7163 284.699 16.9254 284.699 14.1346 285.685 11.7523 287.659 9.78876 289.633 7.81521 292.015 6.82843 294.796 6.82843 297.587 6.82843 299.969 7.81521 301.942 9.78876 303.916 11.7623 304.903 14.1445 304.903 16.9254ZM302.381 37.1294 302.381 107.828 287.23 107.828 287.23 37.1294 302.381 37.1294Z" fill="#FFFFFF"/><path d="M374.864 97.4922C367.967 104.39 359.634 107.828 349.846 107.828 340.058 107.828 331.725 104.38 324.828 97.4922 317.93 90.6047 314.491 82.262 314.491 72.4739 314.491 62.6859 317.94 54.3532 324.828 47.4557 331.715 40.5682 340.058 37.1195 349.846 37.1195 359.634 37.1195 367.967 40.5682 374.864 47.4557L374.944 47.5354 364.209 58.2704 364.129 58.1906C360.182 54.2435 355.418 52.27 349.846 52.27 344.264 52.27 339.51 54.2435 335.562 58.1906 331.615 62.1377 329.642 66.9021 329.642 72.4739 329.642 78.0557 331.615 82.8102 335.562 86.7573 339.51 90.7044 344.264 92.6779 349.846 92.6779 355.418 92.6779 360.182 90.7044 364.129 86.7573L364.209 86.6775 374.944 97.4125 374.864 97.4922Z" fill="#95F9F1"/><path d="M339.749 72.4839C339.749 69.693 340.736 67.3108 342.709 65.3472 344.683 63.3836 347.065 62.3869 349.856 62.3869 352.647 62.3869 355.029 63.3737 356.992 65.3472 358.966 67.3208 359.953 69.703 359.953 72.4839 359.953 75.2748 358.966 77.657 356.992 79.6306 355.019 81.6041 352.637 82.5909 349.856 82.5909 347.065 82.5909 344.683 81.6041 342.709 79.6306 340.736 77.647 339.749 75.2748 339.749 72.4839Z" stroke="#FFFFFF" stroke-width="0.996743" stroke-miterlimit="10" fill="#FFFFFD"/><path d="M402.374 16.9254 402.374 107.828 387.224 107.828 387.224 16.9254 402.374 16.9254Z" fill="#95F9F1"/><path d="M459.866 106.493C456.707 107.39 453.368 107.838 449.849 107.838 440.061 107.838 431.728 104.39 424.831 97.5022 417.933 90.6147 414.495 82.2719 414.495 72.4839 414.495 62.6959 417.943 54.3631 424.831 47.4657 431.718 40.5782 440.061 37.1294 449.849 37.1294 459.637 37.1294 467.97 40.5782 474.867 47.4657 481.755 54.3631 485.204 62.6959 485.204 72.4839L485.204 107.838 470.053 107.838 470.053 71.9257C469.943 66.6131 467.97 62.038 464.132 58.2006 460.185 54.2535 455.421 52.2799 449.849 52.2799 444.267 52.2799 439.513 54.2535 435.566 58.2006 431.619 62.1477 429.645 66.9121 429.645 72.4839 429.645 78.0657 431.619 82.8201 435.566 86.7672 439.513 90.7144 444.267 92.6879 449.849 92.6879 453.527 92.6879 456.876 91.8207 459.866 90.0864L459.866 106.493Z" fill="#95F9F1"/><path d="M522.651 38.475C525.811 37.578 529.15 37.1294 532.668 37.1294 542.456 37.1294 550.789 40.5782 557.687 47.4657 564.574 54.3631 568.023 62.6959 568.023 72.4839 568.023 82.2719 564.574 90.6047 557.687 97.5022 550.789 104.4 542.456 107.838 532.668 107.838 522.88 107.838 514.548 104.39 507.65 97.5022 500.753 90.6147 497.314 82.2719 497.314 72.4839L497.314 16.9254 512.464 16.9254 512.464 73.0321C512.574 78.3448 514.538 82.9198 518.385 86.7672 522.332 90.7144 527.087 92.6879 532.668 92.6879 538.24 92.6879 543.005 90.7144 546.952 86.7672 550.899 82.8201 552.872 78.0657 552.872 72.4839 552.872 66.9121 550.899 62.1477 546.952 58.2006 543.005 54.2535 538.24 52.2799 532.668 52.2799 528.98 52.2799 525.641 53.1471 522.651 54.8814L522.651 38.475Z" fill="#95F9F1"/><path d="M54.7998 45.1632C54.7998 53.0351 48.4183 59.4166 40.5464 59.4166 32.6744 59.4166 26.2929 53.0351 26.2929 45.1632 26.2929 37.2912 32.6744 30.9097 40.5464 30.9097 48.4183 30.9097 54.7998 37.2912 54.7998 45.1632Z" fill="#FF0000"/><path d="M36.2903 89.1794C36.2903 97.0513 29.9088 103.433 22.0369 103.433 14.1649 103.433 7.78342 97.0513 7.78342 89.1794 7.78342 81.3074 14.1649 74.9259 22.0369 74.9259 29.9088 74.9259 36.2903 81.3074 36.2903 89.1794Z" fill="#FF0000"/><path d="M34.3167 81.9829C34.3167 81.9829 31.6056 77.1985 34.845 68.6265 38.0844 60.0545 43.9851 58.978 43.9851 58.978 32.5525 59.4166 28.2266 52.3497 28.2266 52.3497 28.2266 52.3497 31.5857 57.3135 27.7283 65.6363 23.8709 73.9591 18.5483 75.3645 18.5483 75.3645 18.5483 75.3645 29.7317 76.6304 34.3167 81.9829Z" fill="#FF0000"/><path d="M80.3463 71.1383C80.3463 79.0103 73.9649 85.3917 66.0929 85.3917 58.221 85.3917 51.8395 79.0103 51.8395 71.1383 51.8395 63.2664 58.221 56.8849 66.0929 56.8849 73.9649 56.8849 80.3463 63.2664 80.3463 71.1383Z" fill="#FF0000"/><path d="M36.1408 89.1794C36.1408 97.0513 29.7593 103.433 21.8873 103.433 14.0154 103.433 7.63391 97.0513 7.63391 89.1794 7.63391 81.3074 14.0154 74.9259 21.8873 74.9259 29.7593 74.9259 36.1408 81.3074 36.1408 89.1794Z" fill="#FF0000"/><path d="M35.6524 92.7676C35.6524 92.7676 37.1176 87.465 45.4803 83.6973 53.833 79.9296 58.7668 83.3384 58.7668 83.3384 50.3743 75.5639 52.3079 67.5102 52.3079 67.5102 52.3079 67.5102 51.1717 73.4009 42.5598 76.5506 33.9479 79.7003 29.1935 76.9394 29.1935 76.9394 29.1935 76.9394 36.2006 85.7406 35.6524 92.7676Z" fill="#FF0000"/><path d="M70.8274 71.1383C70.8274 73.7531 68.7077 75.8728 66.0929 75.8728 63.4781 75.8728 61.3584 73.7531 61.3584 71.1383 61.3584 68.5235 63.4781 66.4038 66.0929 66.4038 68.7077 66.4038 70.8274 68.5235 70.8274 71.1383Z" fill="#FFFFFF"/></g></g></g></g><g clip-path="url(#clip6)"><g clip-path="url(#clip7)"><path d="M609.947 317C600.159 317 591.826 313.551 584.929 306.664 578.031 299.776 574.593 291.434 574.593 281.646 574.593 271.857 578.041 263.525 584.929 256.627 591.816 249.74 600.159 246.291 609.947 246.291 619.735 246.291 628.068 249.74 634.965 256.627 641.853 263.525 645.302 271.857 645.302 281.646 645.302 291.434 641.853 299.766 634.965 306.664 628.078 313.561 619.735 317 609.947 317ZM624.231 295.939C628.178 291.992 630.151 287.237 630.151 281.655 630.151 276.084 628.178 271.319 624.231 267.372 620.283 263.425 615.519 261.451 609.947 261.451 604.375 261.451 599.611 263.425 595.664 267.372 591.717 271.319 589.743 276.084 589.743 281.655 589.743 287.237 591.717 291.992 595.664 295.939 599.611 299.886 604.365 301.859 609.947 301.859 615.529 301.849 620.293 299.886 624.231 295.939Z" fill="#FFFFFF"/><path d="M672.573 246.301C682.361 246.301 690.693 249.75 697.591 256.637 704.478 263.535 707.927 271.867 707.927 281.655L707.927 317.01 692.777 317.01 692.777 281.655C692.777 276.084 690.803 271.319 686.856 267.372 682.909 263.425 678.144 261.451 672.573 261.451L672.573 317 657.422 317 657.422 246.301 672.573 246.301ZM707.927 246.301C717.715 246.301 726.048 249.75 732.945 256.637 739.833 263.535 743.282 271.867 743.282 281.655L743.282 317.01 728.131 317.01 728.131 281.655C728.131 276.084 726.157 271.319 722.21 267.372 718.263 263.425 713.499 261.451 707.927 261.451L707.927 246.301Z" fill="#FFFFFF"/><path d="M773.074 226.097C773.074 228.888 772.087 231.27 770.114 233.244 768.14 235.217 765.758 236.204 762.967 236.204 760.176 236.204 757.794 235.217 755.831 233.244 753.857 231.27 752.87 228.888 752.87 226.097 752.87 223.306 753.857 220.924 755.831 218.96 757.804 216.987 760.186 216 762.967 216 765.758 216 768.14 216.987 770.114 218.96 772.087 220.934 773.074 223.316 773.074 226.097ZM770.552 246.301 770.552 317 755.402 317 755.402 246.301 770.552 246.301Z" fill="#FFFFFF"/><path d="M843.036 306.664C836.138 313.561 827.805 317 818.017 317 808.229 317 799.897 313.551 792.999 306.664 786.102 299.776 782.663 291.434 782.663 281.646 782.663 271.857 786.112 263.525 792.999 256.627 799.887 249.74 808.229 246.291 818.017 246.291 827.805 246.291 836.138 249.74 843.036 256.627L843.115 256.707 832.38 267.442 832.301 267.362C828.354 263.415 823.589 261.442 818.017 261.442 812.436 261.442 807.681 263.415 803.734 267.362 799.787 271.309 797.813 276.074 797.813 281.646 797.813 287.227 799.787 291.982 803.734 295.929 807.681 299.876 812.436 301.849 818.017 301.849 823.589 301.849 828.354 299.876 832.301 295.929L832.38 295.849 843.115 306.584 843.036 306.664Z" fill="#95F9F1"/><path d="M807.92 281.655C807.92 278.865 808.907 276.482 810.881 274.519 812.854 272.555 815.236 271.558 818.027 271.558 820.818 271.558 823.2 272.545 825.164 274.519 827.138 276.492 828.124 278.875 828.124 281.655 828.124 284.446 827.138 286.829 825.164 288.802 823.19 290.776 820.808 291.762 818.027 291.762 815.236 291.762 812.854 290.776 810.881 288.802 808.907 286.819 807.92 284.446 807.92 281.655Z" stroke="#FFFFFF" stroke-width="0.996743" stroke-miterlimit="10" fill="#FFFFFD"/><path d="M870.546 226.097 870.546 317 855.395 317 855.395 226.097 870.546 226.097Z" fill="#95F9F1"/><path d="M928.038 315.664C924.878 316.561 921.539 317.01 918.021 317.01 908.233 317.01 899.9 313.561 893.002 306.674 886.105 299.786 882.666 291.444 882.666 281.655 882.666 271.867 886.115 263.535 893.002 256.637 899.89 249.75 908.233 246.301 918.021 246.301 927.809 246.301 936.141 249.75 943.039 256.637 949.926 263.535 953.375 271.867 953.375 281.655L953.375 317.01 938.225 317.01 938.225 281.097C938.115 275.785 936.141 271.21 932.304 267.372 928.357 263.425 923.592 261.451 918.021 261.451 912.439 261.451 907.684 263.425 903.737 267.372 899.79 271.319 897.817 276.084 897.817 281.655 897.817 287.237 899.79 291.992 903.737 295.939 907.684 299.886 912.439 301.859 918.021 301.859 921.699 301.859 925.048 300.992 928.038 299.258L928.038 315.664Z" fill="#95F9F1"/><path d="M990.823 247.647C993.982 246.75 997.321 246.301 1000.84 246.301 1010.63 246.301 1018.96 249.75 1025.86 256.637 1032.75 263.535 1036.19 271.867 1036.19 281.655 1036.19 291.444 1032.75 299.776 1025.86 306.674 1018.96 313.571 1010.63 317.01 1000.84 317.01 991.052 317.01 982.719 313.561 975.822 306.674 968.924 299.786 965.486 291.444 965.486 281.655L965.486 226.097 980.636 226.097 980.636 282.204C980.746 287.516 982.709 292.091 986.557 295.939 990.504 299.886 995.258 301.859 1000.84 301.859 1006.41 301.859 1011.18 299.886 1015.12 295.939 1019.07 291.992 1021.04 287.237 1021.04 281.655 1021.04 276.084 1019.07 271.319 1015.12 267.372 1011.18 263.425 1006.41 261.451 1000.84 261.451 997.152 261.451 993.813 262.319 990.823 264.053L990.823 247.647Z" fill="#95F9F1"/><path d="M522.971 254.335C522.971 262.207 516.59 268.588 508.718 268.588 500.846 268.588 494.465 262.207 494.465 254.335 494.465 246.463 500.846 240.081 508.718 240.081 516.59 240.081 522.971 246.463 522.971 254.335Z" fill="url(#fill8)"/><path d="M504.462 298.351C504.462 306.223 498.08 312.604 490.208 312.604 482.336 312.604 475.955 306.223 475.955 298.351 475.955 290.479 482.336 284.098 490.208 284.098 498.08 284.098 504.462 290.479 504.462 298.351Z" fill="url(#fill9)"/><path d="M502.488 291.154C502.488 291.154 499.777 286.37 503.017 277.798 506.256 269.226 512.157 268.15 512.157 268.15 500.724 268.588 496.398 261.521 496.398 261.521 496.398 261.521 499.757 266.485 495.9 274.808 492.042 283.131 486.72 284.536 486.72 284.536 486.72 284.536 497.903 285.802 502.488 291.154Z" fill="url(#fill10)"/><path d="M548.518 280.31C548.518 288.182 542.136 294.563 534.264 294.563 526.393 294.563 520.011 288.182 520.011 280.31 520.011 272.438 526.393 266.056 534.264 266.056 542.136 266.056 548.518 272.438 548.518 280.31Z" fill="url(#fill11)"/><path d="M504.312 298.351C504.312 306.223 497.931 312.604 490.059 312.604 482.187 312.604 475.805 306.223 475.805 298.351 475.805 290.479 482.187 284.098 490.059 284.098 497.931 284.098 504.312 290.479 504.312 298.351Z" fill="url(#fill12)"/><path d="M503.824 301.939C503.824 301.939 505.289 296.637 513.652 292.869 522.005 289.101 526.938 292.51 526.938 292.51 518.546 284.735 520.479 276.682 520.479 276.682 520.479 276.682 519.343 282.572 510.731 285.722 502.12 288.872 497.365 286.111 497.365 286.111 497.365 286.111 504.372 294.912 503.824 301.939Z" fill="url(#fill13)"/><path d="M538.999 280.31C538.999 282.925 536.879 285.044 534.264 285.044 531.65 285.044 529.53 282.925 529.53 280.31 529.53 277.695 531.65 275.575 534.264 275.575 536.879 275.575 538.999 277.695 538.999 280.31Z" fill="#FFFFFF"/></g></g></g></svg>