<svg width="127" height="23" xmlns="http://www.w3.org/2000/svg" xmlns:xlink="http://www.w3.org/1999/xlink" xml:space="preserve" overflow="hidden"><defs><clipPath id="clip0"><rect x="30" y="20" width="127" height="23"/></clipPath></defs><g clip-path="url(#clip0)" transform="translate(-30 -20)"><path d="M30.3132 22.8238C28.1013 22.8238 26.2183 22.0445 24.6596 20.4881 23.1009 18.9317 22.3238 17.0464 22.3238 14.8345 22.3238 12.6226 23.1031 10.7396 24.6596 9.18089 26.216 7.62446 28.1013 6.84513 30.3132 6.84513 32.525 6.84513 34.4081 7.62446 35.9668 9.18089 37.5232 10.7396 38.3025 12.6226 38.3025 14.8345 38.3025 17.0464 37.5232 18.9294 35.9668 20.4881 34.4103 22.0468 32.525 22.8238 30.3132 22.8238ZM33.5409 18.0645C34.4328 17.1725 34.8788 16.0981 34.8788 14.8367 34.8788 13.5776 34.4328 12.501 33.5409 11.609 32.6489 10.717 31.5723 10.2711 30.3132 10.2711 29.0541 10.2711 27.9774 10.717 27.0854 11.609 26.1935 12.501 25.7475 13.5776 25.7475 14.8367 25.7475 16.0981 26.1935 17.1725 27.0854 18.0645 27.9774 18.9564 29.0518 19.4024 30.3132 19.4024 31.5745 19.4002 32.6512 18.9564 33.5409 18.0645Z" fill="#5C76AA" transform="matrix(1 0 0 1.00772 30.182 20)"/><path d="M44.4652 6.84738C46.677 6.84738 48.5601 7.62672 50.1188 9.18315 51.6752 10.7418 52.4545 12.6249 52.4545 14.8367L52.4545 22.8261 49.0308 22.8261 49.0308 14.8367C49.0308 13.5776 48.5849 12.501 47.6929 11.609 46.8009 10.717 45.7243 10.2711 44.4652 10.2711L44.4652 22.8238 41.0415 22.8238 41.0415 6.84738 44.4652 6.84738ZM52.4545 6.84738C54.6664 6.84738 56.5494 7.62672 58.1081 9.18315 59.6645 10.7418 60.4439 12.6249 60.4439 14.8367L60.4439 22.8261 57.0202 22.8261 57.0202 14.8367C57.0202 13.5776 56.5742 12.501 55.6823 11.609 54.7903 10.717 53.7136 10.2711 52.4545 10.2711L52.4545 6.84738Z" fill="#5C76AA" transform="matrix(1 0 0 1.00772 30.182 20)"/><path d="M67.1764 2.28171C67.1764 2.91239 66.9534 3.45072 66.5074 3.8967 66.0614 4.34268 65.5231 4.56567 64.8924 4.56567 64.2617 4.56567 63.7234 4.34268 63.2797 3.8967 62.8337 3.45072 62.6107 2.91239 62.6107 2.28171 62.6107 1.65103 62.8337 1.1127 63.2797 0.668971 63.7257 0.22299 64.264 1.00028e-16 64.8924 1.00028e-16 65.5231 1.00028e-16 66.0614 0.22299 66.5074 0.668971 66.9534 1.11495 67.1764 1.65328 67.1764 2.28171ZM66.6065 6.84738 66.6065 22.8238 63.1828 22.8238 63.1828 6.84738 66.6065 6.84738Z" fill="#5C76AA" transform="matrix(1 0 0 1.00772 30.182 20)"/><path d="M82.9862 20.4881C81.4275 22.0468 79.5445 22.8238 77.3326 22.8238 75.1207 22.8238 73.2377 22.0445 71.679 20.4881 70.1203 18.9317 69.3432 17.0464 69.3432 14.8345 69.3432 12.6226 70.1226 10.7396 71.679 9.18089 73.2354 7.62446 75.1207 6.84513 77.3326 6.84513 79.5445 6.84513 81.4275 7.62446 82.9862 9.18089L83.0042 9.19891 80.5783 11.6248 80.5603 11.6068C79.6684 10.7148 78.5917 10.2688 77.3326 10.2688 76.0712 10.2688 74.9968 10.7148 74.1049 11.6068 73.2129 12.4987 72.7669 13.5754 72.7669 14.8345 72.7669 16.0958 73.2129 17.1703 74.1049 18.0622 74.9968 18.9542 76.0712 19.4002 77.3326 19.4002 78.5917 19.4002 79.6684 18.9542 80.5603 18.0622L80.5783 18.0442 83.0042 20.4701 82.9862 20.4881Z" fill="#5C76AA" transform="matrix(1 0 0 1.00772 30.182 20)"/><path d="M75.0509 14.8367C75.0509 14.2061 75.2739 13.6677 75.7198 13.224 76.1658 12.7803 76.7042 12.555 77.3348 12.555 77.9655 12.555 78.5038 12.778 78.9476 13.224 79.3935 13.67 79.6165 14.2083 79.6165 14.8367 79.6165 15.4674 79.3935 16.0057 78.9476 16.4517 78.5016 16.8977 77.9633 17.1207 77.3348 17.1207 76.7042 17.1207 76.1658 16.8977 75.7198 16.4517 75.2739 16.0035 75.0509 15.4674 75.0509 14.8367Z" fill="#5C76AA" transform="matrix(1 0 0 1.00772 30.182 20)"/><path d="M89.2029 2.28171 89.2029 22.8238 85.7792 22.8238 85.7792 2.28171 89.2029 2.28171Z" fill="#5C76AA" transform="matrix(1 0 0 1.00772 30.182 20)"/><path d="M102.195 22.522C101.481 22.7247 100.726 22.8261 99.9312 22.8261 97.7193 22.8261 95.8363 22.0468 94.2776 20.4903 92.7189 18.9339 91.9418 17.0486 91.9418 14.8367 91.9418 12.6249 92.7212 10.7418 94.2776 9.18315 95.834 7.62672 97.7193 6.84738 99.9312 6.84738 102.143 6.84738 104.026 7.62672 105.585 9.18315 107.141 10.7418 107.921 12.6249 107.921 14.8367L107.921 22.8261 104.497 22.8261 104.497 14.7106C104.472 13.5101 104.026 12.4762 103.159 11.609 102.267 10.717 101.19 10.2711 99.9312 10.2711 98.6698 10.2711 97.5954 10.717 96.7034 11.609 95.8115 12.501 95.3655 13.5776 95.3655 14.8367 95.3655 16.0981 95.8115 17.1725 96.7034 18.0645 97.5954 18.9564 98.6698 19.4024 99.9312 19.4024 100.762 19.4024 101.519 19.2064 102.195 18.8145L102.195 22.522Z" fill="#5C76AA" transform="matrix(1 0 0 1.00772 30.182 20)"/><path d="M116.383 7.15146C117.097 6.94874 117.851 6.84738 118.647 6.84738 120.858 6.84738 122.742 7.62672 124.3 9.18315 125.857 10.7418 126.636 12.6249 126.636 14.8367 126.636 17.0486 125.857 18.9317 124.3 20.4903 122.742 22.049 120.858 22.8261 118.647 22.8261 116.435 22.8261 114.552 22.0468 112.993 20.4903 111.434 18.9339 110.657 17.0486 110.657 14.8367L110.657 2.28171 114.081 2.28171 114.081 14.9606C114.106 16.1612 114.549 17.195 115.419 18.0645 116.311 18.9564 117.385 19.4024 118.647 19.4024 119.906 19.4024 120.982 18.9564 121.874 18.0645 122.766 17.1725 123.212 16.0981 123.212 14.8367 123.212 13.5776 122.766 12.501 121.874 11.609 120.982 10.717 119.906 10.2711 118.647 10.2711 117.813 10.2711 117.059 10.467 116.383 10.859L116.383 7.15146Z" fill="#5C76AA" transform="matrix(1 0 0 1.00772 30.182 20)"/><path d="M10.6585 8.66283C10.6585 10.4417 9.21641 11.8838 7.43751 11.8838 5.65862 11.8838 4.21654 10.4417 4.21654 8.66283 4.21654 6.88394 5.65862 5.44186 7.43751 5.44186 9.21641 5.44186 10.6585 6.88394 10.6585 8.66283Z" fill="#5C76AA" transform="matrix(1 0 0 1.00772 30.182 20)"/><path d="M6.47573 18.6096C6.47573 20.3884 5.03365 21.8305 3.25476 21.8305 1.47586 21.8305 0.0337864 20.3884 0.0337864 18.6096 0.0337864 16.8307 1.47586 15.3886 3.25476 15.3886 5.03365 15.3886 6.47573 16.8307 6.47573 18.6096Z" fill="#5C76AA" transform="matrix(1 0 0 1.00772 30.182 20)"/><path d="M6.02975 16.9833C6.02975 16.9833 5.41709 15.9021 6.14913 13.965 6.88116 12.028 8.2146 11.7847 8.2146 11.7847 5.63107 11.8838 4.65351 10.2868 4.65351 10.2868 4.65351 10.2868 5.41258 11.4085 4.54089 13.2893 3.6692 15.1701 2.46641 15.4877 2.46641 15.4877 2.46641 15.4877 4.99363 15.7737 6.02975 16.9833Z" fill="#5C76AA" transform="matrix(1 0 0 1.00772 30.182 20)"/><path d="M16.4315 14.5327C16.4315 16.3116 14.9894 17.7536 13.2105 17.7536 11.4316 17.7536 9.98951 16.3116 9.98951 14.5327 9.98951 12.7538 11.4316 11.3117 13.2105 11.3117 14.9894 11.3117 16.4315 12.7538 16.4315 14.5327Z" fill="#5C76AA" transform="matrix(1 0 0 1.00772 30.182 20)"/><path d="M6.44194 18.6096C6.44194 20.3884 4.99986 21.8305 3.22097 21.8305 1.44208 21.8305 4.29616e-08 20.3884 4.29616e-08 18.6096 4.29616e-08 16.8307 1.44208 15.3886 3.22097 15.3886 4.99986 15.3886 6.44194 16.8307 6.44194 18.6096Z" fill="#5C76AA" transform="matrix(1 0 0 1.00772 30.182 20)"/><path d="M6.33157 19.4204C6.33157 19.4204 6.66268 18.2221 8.55247 17.3707 10.44 16.5193 11.555 17.2896 11.555 17.2896 9.65841 15.5327 10.0954 13.7128 10.0954 13.7128 10.0954 13.7128 9.8386 15.044 7.8925 15.7557 5.94641 16.4675 4.872 15.8436 4.872 15.8436 4.872 15.8436 6.45546 17.8325 6.33157 19.4204Z" fill="#5C76AA" transform="matrix(1 0 0 1.00772 30.182 20)"/><path d="M14.2804 14.5327C14.2804 15.1235 13.8014 15.6026 13.2105 15.6026 12.6196 15.6026 12.1406 15.1235 12.1406 14.5327 12.1406 13.9418 12.6196 13.4628 13.2105 13.4628 13.8014 13.4628 14.2804 13.9418 14.2804 14.5327Z" fill="#5C76AA" transform="matrix(1 0 0 1.00772 30.182 20)"/></g></svg>